<?xml version="1.0" encoding="UTF-8" standalone="no"?><!-- Created with Inkscape (http://www.inkscape.org/) -->

<svg xmlns:inkscape="http://www.inkscape.org/namespaces/inkscape" xmlns:sodipodi="http://sodipodi.sourceforge.net/DTD/sodipodi-0.dtd"
    height="48" id="svg5" version="1.1"
    viewBox="0 0 12.7 12.7" width="48" xmlns="http://www.w3.org/2000/svg" inkscape:export-filename="ic_launcher.svg"
    inkscape:export-xdpi="96" inkscape:export-ydpi="96" inkscape:version="1.3.2 (091e20e, 2023-11-25, custom)"
    sodipodi:docname="ic_launcher.svg" xml:space="preserve"><sodipodi:namedview
     bordercolor="#000000"
     borderopacity="0.25"
     id="namedview1"
     pagecolor="#9c169c"
     showgrid="false"
     inkscape:current-layer="svg5"
     inkscape:cx="17.5625"
     inkscape:cy="25.875"
     inkscape:deskcolor="#d1d1d1"
     inkscape:pagecheckerboard="false"
     inkscape:pageopacity="0.0"
     inkscape:showpageshadow="2"
     inkscape:window-height="682"
     inkscape:window-maximized="1"
     inkscape:window-width="1128"
     inkscape:window-x="-6"
     inkscape:window-y="-6"
     inkscape:zoom="8" />
    <defs id="defs2"><filter
       style="color-interpolation-filters:sRGB"
       height="1.4148274"
       id="filter65"
       width="1.586653"
       x="-0.29332652"
       y="-0.20741371"><feGaussianBlur
         id="feGaussianBlur65"
         stdDeviation="0.72793469" /></filter></defs>
    <g id="layer1" transform="matrix(0.4022672,0,0,0.40542513,3.772284,3.6992833)"><ellipse
       style="display:none;fill:#9c169c;fill-opacity:1;stroke-width:0.654924"
       cx="6.4101086"
       cy="6.5350561"
       id="path111-4"
       rx="15.780786"
       ry="15.655837" />
        <circle style="display:inline;fill:#ff00ff;fill-opacity:1;stroke-width:0.264583" cx="6.3499999" cy="6.3499999"
            id="path111" r="6.3499999" /></g>
    <path
        style="fill:#f4d7d7;stroke-width:0.00745396"
        d="M 5.3471073,9.492336 4.7806089,8.5382335 3.7072437,8.2997073 3.8115988,7.1965269 3.0811141,6.3616875 3.8115988,5.5268478 3.7072437,4.4236669 4.7806089,4.1851414 5.3471073,3.231039 6.360841,3.6633666 7.3745747,3.231039 7.9410731,4.1851414 9.0144385,4.4236669 8.9100827,5.5268478 9.6405677,6.3616875 8.9100827,7.1965269 9.0144385,8.2997073 7.9410731,8.5382335 7.3745747,9.492336 6.360841,9.0600078 Z M 6.0477762,7.4201447 7.7323631,5.7355578 7.3149434,5.3032301 6.0477762,6.5703973 5.4067386,5.9442676 4.9893189,6.3616875 Z" id="path1-4" /></svg>
